<?xml version="1.0" encoding="UTF-8"?>
<svg viewBox="0 0 325 287.5" xmlns="http://www.w3.org/2000/svg">
 <path d="m79.521 279.02c-2.1547-0.38954-4.9166-0.89334-6.1375-1.1195-2.3654-0.43827-11.537-2.051-14.364-2.5258-0.93369-0.15678-2.5203-0.45749-3.5258-0.66823l-2.3931-0.49688c-0.70387-0.14168-5.4046-6.025-5.213-6.5244 0.08544-0.22268 0.00249-0.30333-0.22296-0.2168-0.20819 0.07989-0.55419-0.17256-0.82363-0.60095-0.25555-0.40628-0.91069-1.2839-1.4559-1.9502s-0.99125-1.2794-0.99125-1.3623c0-0.17404 1.553 0.8889 5.79 3.9629 1.053 0.76397 3.0434 2.1802 4.423 3.1471l2.5084 1.7581 3.6291 0.32072 7.9384 0.70435c8.9098 0.79315 13.24 1.1739 14.887 1.3087 1.3711 0.1123 2.9283-0.10672 8.0963-1.1388 3.5193-0.70281 6.4294-1.254 6.4668-1.2249 0.07343 0.05707-10.887 5.5712-13.257 6.6695l-1.4364 0.66567-3.9176-0.70824zm-3.1341-11.592c-2.7292-0.18267-7.019-0.46572-9.5327-0.62903-7.7852-0.50579-6.654-0.15177-12.124-3.7938-5.84-3.8887-7.3148-4.8216-8.509-5.3829-0.50275-0.23628-1.5605-0.81474-2.3505-1.2855s-2.0482-1.1883-2.796-1.5947c-2.1255-1.1551-2.5128-1.3877-2.8931-1.7372-0.19537-0.17955-0.46019-0.32646-0.58847-0.32646s-1.1044-0.52888-2.1691-1.1753-2.0039-1.1753-2.087-1.1753-0.57164-0.28532-1.0855-0.63403-1.0406-0.67192-1.1706-0.71822c-0.32695-0.11652 1.2084-9.1239 1.619-9.4976 2.9756-2.7089 6.8593-6.1604 8.5094-7.5627 1.8512-1.5732 2.6611-2.4201 2.6518-2.7731-0.00847-0.32015-2.9713-2.8365-6.8714-5.8359-2.5824-1.986-2.4471-1.67-2.529-5.9068-0.09547-4.9356-0.13571-4.7135 0.989-5.457 0.53768-0.35541 1.4598-1.0312 2.0492-1.5017s1.1421-0.85553 1.2284-0.85553c0.14028 0 5.4365-3.6249 8.9761-6.1434 1.3944-0.9922 3.0059-2.3406 5.0121-4.1939l1.1537-1.0658-2.1543-1.2426c-1.1849-0.68343-3.4052-1.8895-4.934-2.6802s-2.8913-1.5442-3.0278-1.6745-0.48905-0.23873-0.78352-0.24093c-0.44136-0.0033-0.46659-0.04846-0.14364-0.25717 0.35861-0.23175 0.18205-0.3774-0.34615-0.28554-0.11856 0.02062-0.13014-0.2299-0.02573-0.55671 0.52947-1.6573 1.3161-5.7183 1.13-5.8333s-8.7396-1.2145-12.25-1.5696c-2.5462-0.25762-2.4126-0.14989-3.7738-3.0428-0.6948-1.4766-1.6578-3.4845-2.14-4.462s-0.87671-1.8854-0.87671-2.0175 0.33187-0.97775 0.73749-1.8791 0.89509-2.0502 1.0877-2.553 0.50714-1.0996 0.69895-1.3264 0.34874-0.61646 0.34874-0.86597 0.12167-0.68098 0.27036-0.95883c0.20188-0.3772 0.18534-0.50761-0.06529-0.51479-0.18461-0.00529-5.1147-0.00148-10.956 0.00847l-10.62 0.01808-0.15215-0.72668c-0.08368-0.39968-0.26708-1.5494-0.40755-2.5549s-0.43238-2.9969-0.64868-4.4253l-0.39326-2.5971 0.83941-1.3204c0.46167-0.72625 0.93264-1.438 1.0466-1.5816 0.48513-0.61159 6.9832-10.583 6.9832-10.715 0-0.08032 0.28381-0.45211 0.63069-0.8262s0.82312-1.1069 1.0583-1.6285c0.26816-0.59468 0.73909-1.0849 1.2628-1.3146 0.45934-0.20143 2.5981-1.2087 4.7527-2.2383 7.1809-3.4315 8.3395-3.9833 11.174-5.3218 1.549-0.73153 2.9383-1.3301 3.0874-1.3301s0.44851-0.17737 0.6653-0.39415 0.51534-0.31926 0.66347-0.22772 0.34432 0.05469 0.43599-0.08191c0.26599-0.39635 3.7661-2.0135 4.275-1.9752 0.25422 0.01915 0.46221-0.07619 0.46221-0.21186s1.3554-0.89087 3.012-1.6782l3.0121-1.4315-0.07388-2.9413-0.07388-2.9413-12.797-0.05953c-7.0386-0.03274-13.326-0.06712-13.973-0.07641-1.0906-0.01568-1.2506-0.11144-2.22-1.3287-2.0583-2.5846-2.9009-3.6076-4.8145-5.8449-1.8017-2.1064-1.9161-2.3108-1.5877-2.8343 0.19469-0.3103 0.72985-1.2693 1.1893-2.1312 0.81742-1.5335 1.7455-3.249 3.6022-6.6584l0.9237-1.6961 3.6082-1.623c3.3588-1.5108 5.1875-2.3474 9.4845-4.3387 1.7192-0.79671 2.0401-0.84706 8.7492-1.3731 1.1492-0.0901 2.2657-0.1633 2.4811-0.16267s1.4495-0.1001 2.7423-0.22384 3.4083-0.29388 4.7011-0.3781c4.3094-0.28072 4.3759-0.29503 4.9338-1.0608 0.57674-0.79172 3.8155-6.0934 3.8155-6.2457 0-0.05329 1.1089-1.8982 2.4642-4.0997 2.3722-3.8534 3.3146-5.2565 7.161-10.663 0.97091-1.3646 2.3196-3.3038 2.9971-4.3093 1.442-2.1401 1.5117-2.2401 3.4348-4.9338l1.4714-2.061-0.28281-2.8289c-0.15555-1.5559-0.37357-3.3316-0.4845-3.946-0.24434-1.3534-0.24746-1.3149 0.59054-7.2888 1.1179-7.9692 0.81108-7.21 3.5626-8.8149l2.356-1.3742 1.2275 0.77045c1.1362 0.71315 6.21 3.7222 8.0179 4.7551l3.6071 2.0764c2.5294 1.4591 2.8695 1.589 3.2646 1.2473 0.2426-0.20981 2.8258-1.8185 5.7405-3.5749 5.8038-3.4974 5.1112-3.2483 11.938-4.2921 1.4364-0.21962 3.5744-0.57406 4.751-0.78765 2.1797-0.39568 2.645-0.46797 6.0876-0.9457 1.0773-0.1495 2.3701-0.37943 2.8729-0.51095s1.6193-0.31734 2.4811-0.41291 1.6461-0.22079 1.7428-0.27825 0.74306-0.16811 1.4364-0.24586 1.4958-0.19271 1.783-0.25545c2.54-0.55474 6.8931-1.2148 7.9657-1.2078 0.21547 0.00141 0.62681-0.09801 0.9141-0.22091s1.345-0.33378 2.3505-0.46861c1.6974-0.22758 2.0432-0.18185 4.8317 0.63887 1.6519 0.4862 3.4736 1.0145 4.0482 1.174s1.5736 0.44731 2.22 0.63953c2.049 0.60928 9.4144 2.7366 12.667 3.6584 1.7237 0.48857 3.898 1.118 4.8317 1.3987s2.8141 0.82466 4.1787 1.2088c1.8122 0.51016 5.051 1.9686 12.014 5.41 8.2257 4.0656 10.303 5.2175 15.148 8.4012 3.0884 2.0293 6.7566 4.4284 8.1516 5.3313l2.5364 1.6417 1.12-0.86916c0.616-0.47805 1.195-0.97237 1.2867-1.0985s0.32672-0.13667 0.52234-0.02342 0.27153 0.11273 0.16869-0.00116 0.21718-0.5147 0.71112-0.89068c3.5296-2.6867 6.3372-4.8967 6.7335-5.3005 0.25697-0.26178 0.563-0.47597 0.68008-0.47597s0.50838-0.26443 0.86957-0.58763 1.8768-1.5265 3.3681-2.674 2.7505-2.1758 2.7984-2.2852 0.19595-0.19893 0.32905-0.19893c0.20216 0 1.0588-0.6536 4.5462-3.4688 0.23989-0.19366 2.497-1.9049 4.8019-3.6407 1.412-1.0633 1.7908-1.3107 4.2085-2.7485 7.7821-4.6279 9.4006-5.6078 12.275-7.4315 1.2615-0.80038 9.9693-9.3391 16.527-16.206 1.2003-1.2569 2.3109-2.2852 2.468-2.2852 0.39335 0 6.4112 2.5864 6.7145 2.8858 0.27898 0.27544 0.27091 0.28678-5.2072 7.3023-2.1547 2.7594-4.799 6.1577-5.8764 7.5518s-3.2659 4.1724-4.8634 6.1742l-2.9047 3.6395-3.8241 2.1547c-2.1033 1.1851-3.9302 2.1547-4.0599 2.1547s-0.27493 0.09406-0.32283 0.20903-0.90974 0.66418-1.9152 1.2205c-6.9494 3.8448-9.8379 5.6326-11.937 7.3884-1.1912 0.99625-4.6388 3.7977-7.6612 6.2254-14.05 11.285-15.818 12.766-15.715 13.157 0.08021 0.30247 7.9916 12.018 12.592 18.647 0.28664 0.41302 0.70845 1.0314 0.93735 1.3743s0.56379 1.2977 0.74419 2.1219c0.33918 1.5497 1.5511 6.676 2.7622 11.684 0.75991 3.1423 0.75351 2.4959 0.13841 13.973-0.14242 2.6574-0.29173 5.4781-0.33179 6.2681l-0.07285 1.4364 1.3059-0.03513c0.71822-0.01932 3.6564-0.46687 6.5293-0.99456s5.5184-0.99924 5.8789-1.0479 1.1248-0.21484 1.6984-0.36929 1.8837-0.31349 2.9113-0.35342 1.85-0.18314 1.8274-0.31826 0.19407-0.29467 0.48136-0.35457 0.66384-0.22368 0.83677-0.36396c0.5524-0.4481 3.9947-2.0262 3.9989-1.8332 0.00219 0.10213 0.09034 0.05066 0.19588-0.11437s1.0146-0.67246 2.0201-1.1276c2.3146-1.0478 5.7051-2.7104 5.8764-2.8816 0.07182-0.07182 0.30688-0.16808 0.52234-0.21391 0.98629-0.20978 7.8552-3.7699 9.141-4.7378 0.79004-0.59468 1.7178-1.2811 2.0617-1.5253s3.2233-2.3893 6.3987-4.7669 6.3611-4.7555 7.0793-5.2844l2.7423-2.0285c0.79004-0.58682 2.7472-2.0285 4.3491-3.2037 7.4924-5.4964 10.506-7.6883 11.684-8.4992l1.2772-0.8788-0.18342 1.923c-0.10087 1.0577-0.35146 3.2158-0.55687 4.7959s-0.37444 3.2458-0.37559 3.7015c-0.00175 0.68732-0.25819 1.0436-1.5038 2.0894-0.82595 0.69342-1.5605 1.3202-1.6323 1.393s-0.89451 0.77269-1.8282 1.5555-2.3458 2.0161-3.138 2.7407c-1.4407 1.3176-9.6381 8.2577-12.662 10.72-6.1869 5.0375-7.7782 6.4908-7.2878 6.6555 0.27292 0.09172 3.4344 0.19951 7.0255 0.23952s6.5496 0.09228 6.5743 0.11616 0.12905 1.7175 0.23174 3.7636l0.18666 3.7202-0.62347 0.01998c-0.34291 0.01099-0.79976 0.05378-1.0152 0.09508s-1.6258 0.15707-3.134 0.25725-3.2712 0.2336-3.9176 0.29649c-1.853 0.18029-10.102 0.86384-12.406 1.028-1.1492 0.0819-5.6152 0.43593-9.9245 0.78673s-9.4218 0.76012-11.361 0.90958c-6.0701 0.46787-6.8893 0.5345-8.0963 0.65857-0.64639 0.06644-2.2084 0.19053-3.471 0.27575s-2.6142 0.25077-3.0035 0.36787c-0.8147 0.24511-4.1334 1.6316-5.6699 2.3688-1.0306 0.49449-7.3001 3.2072-11.622 5.0288-1.221 0.51459-2.6901 1.0072-3.2646 1.0946s-1.5148 0.2652-2.0894 0.39501-2.8076 0.54561-4.9622 0.924-5.0928 1.0732-6.5293 1.5441l-6.3987 2.0882c-2.0828 0.67761-3.9386 1.4278-4.124 1.667s-0.59278 0.72878-0.90542 1.0879-1.3266 1.5931-2.2533 2.7423c-1.499 1.859-2.5276 3.0405-4.013 4.6099-0.25138 0.2656-0.45705 0.54521-0.45705 0.62135s-0.62087 0.86946-1.3797 1.7629c-2.1562 2.5387-2.308 2.72-5.4045 6.4561-2.6373 3.1821-5.0626 5.3878-6.7967 6.1813-0.21547 0.0986-0.45052 0.25783-0.52234 0.35386s-0.88051 0.69223-1.7971 1.3249c-1.5554 1.0736-2.7876 1.9316-6.2553 4.3556-0.76591 0.53539-1.5886 1.091-1.8282 1.2346s-0.4944 0.32027-0.56623 0.39249-0.65712 0.48357-1.3007 0.9141-1.3487 0.92515-1.567 1.0992-1.0955 0.78585-1.9493 1.3596c-1.4732 0.99009-1.6472 1.2269-3.4131 4.6459-1.0234 1.9814-2.8038 5.4261-3.9564 7.6548l-2.0957 4.0522 0.10459 2.7383c0.05753 1.506 0.14156 3.0321 0.18674 3.3912s0.09714 1.1321 0.11548 1.7178l0.03333 1.0649 2.746 1.1241 2.746 1.1241 1.4936-1.4055c0.82147-0.77302 3.712-3.5892 6.4234-6.2582l4.9299-4.8527 2.9097-0.81657c1.6003-0.44912 4.6726-1.2905 6.8272-1.8698 8.2536-2.2189 9.9969-2.7041 12.301-3.4235 2.2759-0.71053 4.076-1.343 5.1972-1.8262 0.28729-0.12381 1.11-0.4002 1.8282-0.61421s3.6465-1.2184 6.5074-2.2319 5.245-1.7992 5.2983-1.746c0.10967 0.10966-0.59131 1.9439-1.6479 4.312-0.67011 1.5019-0.83532 1.6676-2.6935 2.7024-1.0888 0.60631-2.2147 1.2491-2.502 1.4283s-0.81616 0.47674-1.1753 0.66103c-1.2421 0.63743-4.3155 2.3732-5.8764 3.3186s-4.9261 2.629-5.2564 2.629c-0.09603 0-2.8898 1.0692-6.2083 2.376s-6.7905 2.6668-7.7154 3.0222c-1.7016 0.65374-1.9862 0.89178-5.1087 4.2722-0.86187 0.93306-3.2882 3.5168-5.3919 5.7416s-4.0429 4.3105-4.3093 4.6348c-0.41464 0.50472-1.9192 1.0581-3.9909 1.4678-0.22609 0.04471-0.7049 0.15727-1.064 0.25014-3.5218 0.91074-7.047 1.5999-11.567 2.2611-4.766 0.69727-5.8443 0.95163-9.506 2.2424-2.2716 0.80077-4.3653 1.5604-4.6526 1.688s-1.2275 0.46668-2.0894 0.75341-2.566 0.88664-3.787 1.3332-3.6655 1.3264-5.4322 1.9554l-3.2123 1.1436-4.3617 4.7e-4c-4.7554 5e-4 -4.2499-0.09186-12.85 2.3479-6.6452 1.8853-10.545 2.9468-11.753 3.1995-0.6464 0.1352-1.3554 0.34364-1.5756 0.46322s-0.80781 0.30255-1.3058 0.40662-2.7272 0.70146-4.9537 1.3275-6.3902 1.7914-9.2528 2.5896c-3.8917 1.0852-6.3294 1.9538-9.6633 3.4434-3.8345 1.7132-8.6731 3.9637-9.0005 4.1862-0.17267 0.11736 0.51358 5.6393 0.75747 6.095 0.20487 0.38281 1.8364 0.74597 5.3514 1.1912 0.28728 0.0364 0.52234 0.08389 0.52234 0.10556s0.41134 0.09225 0.9141 0.15686c1.644 0.21127 12.634 1.9294 13.973 2.1844 4.5356 0.86414 5.07 0.87601 7.9657 0.17704 1.5083-0.36406 3.8588-0.90676 5.2234-1.206 2.7129-0.59488 4.7626-1.0683 7.9657-1.8397 4.8778-1.1747 7.9094-1.8727 9.0104-2.0746 0.6464-0.11852 1.8804-0.40826 2.7423-0.64388s1.8608-0.48404 2.22-0.55205c1.1882-0.225 5.3404-1.186 6.1375-1.4205 0.43093-0.12676 1.2536-0.30524 1.8282-0.3966s1.3385-0.27318 1.6976-0.40402 1.0643-0.28773 1.567-0.34863 1.8543-0.35274 3.0035-0.64853c3.4571-0.88985 13.133-3.1558 18.543-4.3428 1.7237-0.37816 3.8392-0.86247 4.7011-1.0762 2.3192-0.57525 7.9789-1.9069 8.8798-2.0894 1.3807-0.27957 4.3027-1.3081 6.3987-2.2523 3.6595-1.6485 7.81-3.401 8.347-3.5245 0.35337-0.08122 0.86448-0.35449 1.1358-0.60725s0.77872-0.53121 1.1276-0.61877 1.2481-0.44121 1.9983-0.78588 2.2454-0.99713 3.3228-1.4499 2.457-1.0492 3.0659-1.3253 1.1567-0.50211 1.2173-0.50211 0.97269-0.40268 2.0269-0.89483 2.5537-1.1447 3.3322-1.4501c1.3715-0.53802 2.3782-0.97713 5.1139-2.2306 2.9024-1.3298 4.3326-1.9538 4.4785-1.9538 0.08451 0 0.54068-0.3232 1.0137-0.71822s1.2831-1.012 1.8001-1.3712c0.81093-0.56324 2.3638-1.7154 5.5266-4.1005 1.4028-1.0579 4.4684-3.3268 6.805-5.0366 1.273-0.93153 2.4699-1.8424 2.6597-2.0241s0.42607-0.3304 0.52501-0.3304 0.47251-0.26777 0.83015-0.59505 1.0616-0.88235 1.5644-1.2335 1.0316-0.73281 1.1753-0.84815 1.8478-1.3853 3.787-2.8221c5.7695-4.2749 6.7338-5.0014 8.9072-6.7109 1.1414-0.89777 2.1346-1.6323 2.2072-1.6323s1.2807-0.86131 2.6848-1.914 2.9577-2.1398 3.4525-2.4158 0.95835-0.56588 1.0302-0.64418c0.14085-0.15354 3.7328-2.7397 4.6992-3.3834 0.3235-0.21547 1.3353-0.92063 2.2484-1.567s2.4377-1.7041 3.3879-2.3505 2.0591-1.4417 2.4642-1.7674c0.59213-0.476 1.266-0.64256 3.4358-0.84913l6.6168-0.64485 5.4846-0.52931c0.86186-0.0778 2.566-0.27057 3.787-0.42838 1.9787-0.25575 11.588-0.34554 11.987-0.11201 0.08668 0.0508 2.9783 0.16902 6.4257 0.26272s6.6794 0.21982 7.1822 0.28028 3.4997 0.17658 6.6599 0.25806 6.5802 0.21606 7.6001 0.29908l1.8543 0.15094 0.43093 1.3671c0.26964 0.85539 0.43094 2.2627 0.43094 3.76v2.3929l-2.3505 0.03265c-1.2928 0.01795-2.6737 0.05531-3.0688 0.08302s-4.0677 0.1393-8.1616 0.24797-7.6197 0.24041-7.8351 0.29276-3.0949 0.16503-6.3987 0.2504-7.0059 0.20559-8.2269 0.26715-4.8643 0.18504-8.0963 0.2744l-5.8764 0.16247-3.0035 1.1727c-1.6519 0.64501-3.356 1.3227-3.787 1.506-1.0726 0.45614-2.5836 1.0531-2.7423 1.0834-0.07183 0.0137-0.48317 0.17146-0.9141 0.35059s-1.1949 0.48076-1.6976 0.67031c-5.1963 1.9591-5.4239 2.0951-13.231 7.9118-4.1889 3.1207-8.747 6.4968-10.129 7.5023s-4.251 3.121-6.3752 4.7011l-6.3247 4.6928c-1.3543 1.0009-3.0504 2.2937-3.769 2.8729s-4.597 3.16-8.6186 5.7353-9.1925 5.9183-11.491 7.429c-5.3521 3.518-4.4702 3.0792-17.76 8.8381-2.1547 0.93372-4.3289 1.9067-4.8317 2.1622s-1.2079 0.55342-1.567 0.66213-1.4756 0.58148-2.4811 1.0506c-7.9521 3.7101-15.089 6.6322-17.125 7.0116-8.4644 1.5773-13.919 2.5672-15.783 2.8642-0.43093 0.06868-1.7237 0.31078-2.8729 0.53801s-2.6165 0.48497-3.2607 0.57278-1.4509 0.26597-1.7927 0.39591c-0.50495 0.19198-0.59288 0.16193-0.4692-0.16037 0.18964-0.4942-0.25244-0.52587-0.53665-0.03844-0.19937 0.3419-1.0947 0.53462-8.044 1.7315-4.8492 0.83518-9.4628 1.7449-15.968 3.1485-3.4271 0.73943-7.8177 1.6763-9.7569 2.082s-5.2 1.0989-7.2461 1.5404c-4.2139 0.9093-5.6184 0.95054-13.778 0.40443zm25.126-8.2856c-0.06225-0.3232-0.11319-0.05876-0.11319 0.58764s0.05094 0.91083 0.11319 0.58763 0.06225-0.85207 0-1.1753zm-51.346-8.5534c0.32944-0.59913 1.9126-4.1547 2.4749-5.5582 0.43267-1.08 0.90637-1.5566 3.5038-3.5251 1.6519-1.252 3.0629-2.3546 3.1355-2.4502s1.1891-0.42423 2.4811-0.73012l4.4384-1.0536c1.1492-0.27359 3.4458-0.79533 5.1037-1.1594 4.4802-0.98393 7.218-1.6822 9.2607-2.362 1.8052-0.60072 3.7337-1.1524 4.1122-1.1763 0.10708-0.00676 0.81224-0.23258 1.567-0.50183s1.96-0.6377 2.6782-0.8188 1.4175-0.42946 1.554-0.55193 0.45438-0.22267 0.70649-0.22267c0.43373 0 2.9197-1.0587 4.9217-2.096 0.50275-0.2605 1.5017-0.70711 2.22-0.99247s2.4562-1.0587 3.8623-1.7186 2.6253-1.1998 2.7094-1.1998 1.0493-0.40337 2.1447-0.89636 2.9906-1.0762 4.2116-1.2959 2.5652-0.49866 2.9872-0.61982l0.76727-0.2203-1.0284-1.0553c-0.87983-0.90279-1.6276-1.2737-5.1747-2.5669l-4.1462-1.5116-3.9501 1.9957c-2.1725 1.0976-6.2188 3.1714-8.9918 4.6083s-5.7111 2.7889-6.5293 3.0043c-1.4071 0.37049-10.902 2.6742-19.508 4.7332-3.5659 0.85313-4.2458 1.1147-7.574 2.9137-6.2899 3.4-7.0236 3.7997-8.0963 4.4106-0.57457 0.3272-1.2882 0.70353-1.5858 0.83628-0.51137 0.22813-2.4169 1.4294-7.3594 4.6392-1.1851 0.76964-2.1547 1.5028-2.1547 1.6292 0 0.21167 1.6038 2.6725 2.4484 3.7566 0.24102 0.3094 1.5188 0.72475 3.839 1.2479 1.9127 0.43128 3.5169 0.8234 3.5649 0.87137 0.23531 0.2353 1.2166-0.01804 1.4064-0.36307zm124.21-14.675c-0.08338-0.20835-0.14526-0.14646-0.15779 0.15779-0.01134 0.27531 0.05038 0.42957 0.13717 0.34278s0.09606-0.31204 0.02062-0.50057zm-112.09-12.628c0.57457-0.17748 2.455-0.63944 4.1787-1.0266s3.6629-0.86894 4.3093-1.0706c1.3181-0.41134 6.4868-1.4991 9.2716-1.9512 2.0907-0.33943 2.3476-0.37671 4.3093-0.62531 2.5368-0.32148 3.4835-0.69597 5.22-2.065 0.93559-0.73759 1.8518-1.485 2.0361-1.6608s0.86007-0.69679 1.5017-1.1576 1.1667-0.97335 1.1667-1.139-1.0346-1.3893-2.2991-2.7192l-2.2991-2.418-1.4226 0.2857c-0.78243 0.15714-2.7154 0.52485-4.2955 0.81714s-3.578 0.69337-4.4399 0.89128-4.3081 0.90737-7.6584 1.5766c-6.7674 1.3518-5.9397 1.3352-13.888 0.27779-1.5083-0.20065-3.8588-0.43953-5.2234-0.53086s-2.7936-0.22618-3.1754-0.2997c-0.54655-0.10521-1.4773 0.35386-4.3746 2.1576-2.0242 1.2602-3.6759 2.3543-3.6704 2.4313s0.68126 0.59725 1.5017 1.1561l4.7004 3.2162c3.256 2.2326 3.8865 2.5034 7.7606 3.3331 1.1492 0.2461 2.3832 0.54716 2.7423 0.669 0.90428 0.30682 2.8004 0.23758 4.0482-0.14782zm73.1-12.983c0.62304-1.3287 1.201-2.6509 1.2844-2.9382s0.06086-1.8739-0.05006-3.5258l-0.20168-3.0035-3.2807-6.2227-3.2807-6.2227-2.5758-1.6512c-1.4167-0.90816-4.0034-2.574-5.7481-3.7018l-3.1723-2.0506-2.0226-3.2065c-1.1124-1.7636-2.4468-3.5392-2.9652-3.946-1.2059-0.94595-4.0382-2.9011-4.0966-2.8279-0.02451 0.03073-0.49323 0.87856-1.0416 1.8841-1.5377 2.8197-1.801 3.2612-1.9455 3.263-0.07374 9.1e-4 -1.3069-1.8977-2.7404-4.2191-1.5132-2.4505-3.4835-5.2205-4.6976-6.6044-2.6112-2.9762-2.6539-3.0255-3.2194-3.7151-0.26919-0.32826-0.93376-2.5863-1.5757-5.354-1.876-8.0875-2.3361-9.9906-2.5413-10.51-0.13858-0.35058-0.10634-0.44349 0.10795-0.31106 0.19655 0.12148 0.30555-0.00848 0.30555-0.36432 0-0.30424-0.10906-0.48576-0.24236-0.40338-0.26457 0.16351-0.29283 0.08365-0.92299-2.6081-0.34632-1.4793-0.38609-2.3416-0.20463-4.4362l0.22524-2.6-2.8387-8.3612c-1.5613-4.5987-3.0186-8.9488-3.2384-9.6671s-0.57053-1.7028-0.77934-2.188c-0.37144-0.86317-0.32832-1.0154 1.9976-7.0516 1.3075-3.3932 2.5401-6.5808 2.7391-7.0835 1.2502-3.1578 3.348-8.5646 3.821-9.8478 0.30673-0.83224 0.68897-1.6794 0.84942-1.8826 0.1905-0.24124 0.27089-1.6458 0.23167-4.0482l-0.06005-3.6788 1.3266-3.3952c0.72964-1.8674 1.4288-3.6303 1.5538-3.9176 1.1907-2.7377 2.5937-6.5299 2.5937-7.0107 0-0.32844-0.55939-1.4122-1.2431-2.4084-1.3628-1.9857-0.94238-1.7593-6.0697-3.2683-1.5083-0.44389-3.1381-0.94328-3.6219-1.1098-1.0252-0.35281-0.41786-0.93453-7.5885 7.2679-6.8498 7.8354-6.7287 7.6736-8.1468 10.884-0.71849 1.6268-1.5274 3.4279-1.7976 4.0024s-2.1343 4.8314-4.1425 9.4596l-3.6512 8.415-0.1498 2.5542c-0.21011 3.5823-0.7334 17.512-0.7582 20.183-0.0161 1.7339 1.3149 14.704 2.0638 20.11l0.38002 2.7423c0.13937 1.0055 0.35938 2.6705 0.48892 3.7001 0.14819 1.1778 0.58348 2.6425 1.174 3.9504 0.51618 1.1432 0.9385 2.1514 0.9385 2.2405s0.41134 1.0524 0.9141 2.1409 0.9141 2.0233 0.9141 2.0775 1.4274 3.3658 3.1719 7.359 3.6049 8.2594 4.1341 9.4804l0.96216 2.22 4.0275 3.4757c2.2151 1.9116 4.4876 3.8508 5.0499 4.3093s1.1499 0.95574 1.3059 1.105 1.4657 1.2658 2.9106 2.4811 3.9279 3.3262 5.5178 4.6908c5.4306 4.6611 5.8456 4.9528 9.7214 6.8316l8.2508 4.0076c11.841 5.7613 10.639 5.2823 15.327 6.1073 2.3432 0.41236 4.4694 0.76401 4.7249 0.78143 0.34119 0.02328 0.76503-0.60937 1.5972-2.3842zm12.804 0.21215c0.65813-0.92229 1.1966-1.9166 1.1966-2.2096 0-0.51768-2.234-6.4984-3.5341-9.4614-0.35454-0.80801-0.64462-1.5315-0.64462-1.6077s-0.58927-1.3754-1.3095-2.8872l-1.3095-2.7486 0.24601-2.173c0.1513-1.3364 0.1527-2.2685 0.00363-2.4211-0.291-0.29788-0.32078-1.101-0.04651-1.2543 0.10774-0.06025 0.04468-0.07209-0.14013-0.0263-0.20355 0.05043-0.83904-0.97534-1.6121-2.6021-1.0741-2.2603-1.5434-2.9314-2.9647-4.2395-4.9988-4.6007-9.0629-8.6048-8.8169-8.6868 0.15363-0.05121 0.27932-0.21752 0.27932-0.36958s0.47011-1.0208 1.0447-1.9306 1.0447-1.709 1.0447-1.776 0.4742-0.87822 1.0538-1.8026c1.1003-1.7548 0.92493-1.6385 4.3002-2.8525 0.43093-0.15499 0.89516-0.38049 1.0316-0.50111 0.4196-0.3709 0.8282-0.27556 6.7788 1.5816 3.1737 0.99051 7.9447 2.4708 10.602 3.2895s5.7053 1.774 6.7732 2.1228l1.9415 0.63418 0.94785-0.92555c0.52132-0.50906 1.0286-0.8644 1.1273-0.78966s0.12352 0.06041 0.0552-0.03185 0.47107-0.85492 1.1987-1.6948c1.1108-1.2822 3.1053-2.9788 10.901-9.2729 2.3757-1.9181 6.9804-5.7173 7.0899-5.8498 0.07183-0.08688 0.77699-0.63176 1.567-1.2108s2.553-2.0212 3.9176-3.2046c2.3747-2.0594 3.236-3.1169 6.4266-7.8907 0.63885-0.95583 1.7754-2.2847 2.5256-2.953 2.0831-1.8558 5.6734-5.4361 5.6734-5.6578 0-0.10842-0.9696-0.4886-2.1547-0.84483-4.2099-1.2655-5.8704-1.7343-6.1004-1.7222-0.12816 0.00673-0.64436 0.59402-1.1471 1.3051s-1.1198 1.3599-1.3712 1.4418-0.46023 0.34671-0.46411 0.58841c-0.00662 0.41207-0.67411 1.381-3.2941 4.7818-0.59465 0.77187-3.0421 3.4014-5.4387 5.8433l-4.3575 4.4399 0.18585-4.5705c0.16334-4.0168 0.25473-5.354 0.36592-5.354 0.01682 0 0.04555-0.9245 0.06384-2.0544 0.02477-1.5301-0.06126-2.1063-0.33706-2.2576-0.42216-0.23157-5.2167-1.5651-6.3307-1.7608-0.82642-0.14518-1.0757-0.62032-1.6097-3.0681-1.2405-5.6863-1.8435-7.9311-2.3149-8.6186-0.29547-0.43094-1.3534-1.8812-2.351-3.2229l-1.8138-2.4394 0.30837-1.217c0.16961-0.66935 0.37061-1.6283 0.44668-2.1311 0.34182-2.2591 0.51999-2.4904 2.6618-3.456 1.1079-0.49947 2.602-1.1138 3.3202-1.3652l1.3059-0.45704 6.2681 2.143c3.4475 1.1787 6.4727 2.2034 6.7228 2.2772s1.0026-0.12332 1.6721-0.43806 1.4347-0.51542 1.7003-0.44597 0.43066 0.04177 0.36683-0.06152c-0.1313-0.21243 6.2955-2.8975 6.9353-2.8975 0.36745 0 2.0963 0.52583 7.724 2.3493 2.0114 0.65171 2.2611 0.66023 1.9494 0.06654-0.13202-0.25137-0.31925-0.98592-0.41608-1.6323-0.4953-3.3066-0.70809-3.8625-1.8168-4.7467l-1.3324-1.0633c-0.19422-0.15541-5.4365-3.9808-5.806-4.2368-0.0672-0.04655-2.6501-7.4511-4.2847-12.283-0.58309-1.7237-1.1534-3.3023-1.2674-3.5079-0.23533-0.42455-0.83761 0.6911-2.4738 4.5825l-1.0009 2.3805-3.9127 0.45368c-2.5675 0.29772-3.9685 0.36376-4.0751 0.19209-0.1734-0.27929-1.4648-2.0991-3.5112-4.9481-1.327-1.8473-2.0404-2.2963-6.3146-3.9733-0.86186-0.33817-1.6812-0.71655-1.8207-0.84085-0.25298-0.22539-1.2565-2.9608-1.6914-4.6102-0.12608-0.47823-0.2795-0.91977-0.34094-0.98121s-1.1432 0.39363-2.4039 1.0113l-2.2922 1.123-2.1242-0.43972c-6.5634-1.3587-5.8462-1.0685-7.8371-3.1711-0.98749-1.0429-2.5054-2.7188-3.3732-3.7243-1.9006-2.2023-4.8448-5.4853-6.4534-7.1961-0.6464-0.68747-1.7041-1.5388-2.3505-1.8917-5.1336-2.8033-6.848-3.9419-7.4989-4.9807-2.1121-3.3706-3.6354-5.4727-4.1087-5.67-0.48458-0.20202-2.5782-0.71355-12.159-2.9709l-3.0039-0.70772-1.9584 0.89462c-2.5411 1.1608-4.6315 2.0944-10.041 4.4839l-4.4258 1.9552-0.7112 1.5668c-1.3103 2.8865-1.6077 2.6222 2.8784 2.5584l3.922-0.05574 0.39736 0.9141c1.0441 2.4019 4.1057 10.333 4.1276 10.693 0.02374 0.38909-0.96515 3.8268-3.7232 12.943l-1.2643 4.1787-0.18021 8.2269-0.18021 8.2269-1.8637 2.8656c-4.4018 6.7684-5.6334 8.6411-5.8442 8.8871-0.12312 0.14364-0.52491 0.76698-0.89286 1.3852l-0.66902 1.124 0.61044 2.7935c1.0207 4.671 2.0597 9.6709 4.0268 19.378l1.8789 9.2716 1.8247 4.1787c1.0036 2.2983 1.9892 4.3508 2.1902 4.5612 0.31575 0.33039 0.36634 0.22379 0.37179-0.78352 0.01058-1.9513 0.30665-7.6027 0.48173-9.1948l0.16489-1.4996 2.7452 1.7758 2.7452 1.7758 0.73106 3.6414c0.40208 2.0027 0.78195 3.8764 0.84415 4.1637s0.2264 1.1337 0.36488 1.881 0.53091 1.805 0.87207 2.3505c0.59982 0.95919 3.0434 5.5556 6.3178 11.884 1.7632 3.4077 2.3292 4.0501 10.077 11.438 5.7779 5.5093 6.09 5.8628 7.8467 8.8859 0.84616 1.4561 1.5385 2.6871 1.5385 2.7356s0.50686 0.94985 1.1263 2.0031c1.0272 1.7466 1.2463 2.4619 2.4903 8.1314 0.75016 3.419 1.6068 6.8273 1.9038 7.574l0.77388 1.961c0.30006 0.77351 0.46645 0.65419 1.9113-1.3706zm-72.352-8.5115c3.7836-1.8831 4.2009-2.1707 3.9049-2.6908-0.12077-0.21216-0.89893-1.1078-1.7292-1.9903l-1.5096-1.6046-3.5832 1.0678c-1.9708 0.58729-3.877 1.1661-4.2361 1.2862s-1.5932 0.48925-2.7423 0.82031-2.206 0.70306-2.3486 0.82667c-0.2369 0.2054 0.25139 0.73833 2.4388 2.6617 0.33531 0.29484 1.3456 0.63002 2.4594 0.81593 3.5369 0.59036 3.8724 0.53587 7.346-1.193zm-5.7771-10.892c0.99347-0.64118 1.4581-1.0992 1.3639-1.3447-0.11351-0.29581-2.329-4.0582-5.015-8.5165-0.17387-0.28859-0.45717-0.78914-0.62956-1.1123s-0.44147-0.58891-0.59797-0.59046-1.8712 0.70715-3.8104 1.5749c-2.885 1.291-3.953 1.9328-5.8764 3.5315-3.0553 2.5395-3.301 2.7826-3.1668 3.1322 0.06196 0.16146 0.53183 0.94883 1.0442 1.7497l0.9315 1.4562 2.4238 0.18638c1.3331 0.10251 3.8929 0.33176 5.6884 0.50944 5.6294 0.55708 5.9224 0.53499 7.6443-0.57631zm81.622-3.1383c0.15943-0.53866 0.58871-2.1356 0.95396-3.5487s0.88088-2.8822 1.1458-3.2646 0.881-1.431 1.369-2.33l0.88717-1.6347-3.261-3.251-3.261-3.251-3.9176-0.68322-4.4399-0.78228c-2.3212-0.44027-3.2646-0.53788-3.2646-0.33779 0 0.53675 1.6643 4.5605 2.0548 4.9678 0.23449 0.24463 1.4253 1.1489 2.6463 2.0095s2.3375 1.663 2.4811 1.7832 0.99117 0.72823 1.8834 1.3512c1.1177 0.78045 1.7024 1.3871 1.8799 1.9508 0.31288 0.99324 2.113 7.7039 2.113 7.877 0 0.06781 0.09892 0.12329 0.21983 0.12329s0.35028-0.44073 0.50971-0.9794zm-111.34-10.088c1.2928-0.35008 3.3495-0.92982 4.5705-1.2883s3.8653-1.0855 5.8764-1.6156l5.0429-1.3321c0.76256-0.2026 2.0167-0.71902 2.787-1.1476 0.99245-0.55219 1.4386-0.68517 1.5311-0.45638 0.07626 0.18864 0.13911 0.13285 0.15115-0.13417 0.01134-0.25138 0.13815-0.45705 0.28179-0.45705 0.43849 0 0.32096-0.32879-1.4364-4.0185-0.93368-1.9603-1.6976-3.6336-1.6976-3.7184 0-0.1552-1.5663-3.5394-1.7226-3.722-0.12388-0.14468-1.6621 0.50923-5.3944 2.2932-1.8315 0.87545-3.3771 1.5917-3.4346 1.5917s-1.1127 0.47011-2.3448 1.0447-2.3956 1.0447-2.5854 1.0447-0.45683 0.1087-0.59329 0.24156c-0.39735 0.38685-4.494 2.3702-4.8958 2.3702-0.44905 0-3.9022 5.1242-3.7903 5.6245 0.04426 0.1979 0.8444 1.3076 1.7781 2.466 1.9518 2.4216 1.6473 2.3587 5.8764 1.2135zm111.05-10.659c-0.08337-0.20834-0.14526-0.14646-0.15779 0.1578-0.01134 0.27531 0.05039 0.42957 0.13717 0.34278s0.09606-0.31204 0.02062-0.50058zm-0.31796-0.95657c-0.14716-0.15491-0.64396 0.2377-0.64396 0.50891 0 0.14083 0.16443 0.10451 0.36541-0.0807s0.32633-0.37792 0.27855-0.42821zm-0.9879-0.08811c-0.08337-0.20834-0.14525-0.14646-0.15779 0.15779-0.01134 0.27532 0.05039 0.42957 0.13718 0.34279s0.09606-0.31205 0.02061-0.50058zm-140.71-2.0167c-0.77273-1.0452-0.99351-0.82438-0.23743 0.23743 0.31863 0.44747 0.63561 0.7573 0.70441 0.6885s-0.14134-0.48547-0.46698-0.92593zm20.545-4.5693c11.434-3.9704 14.385-4.9821 16.173-5.5463 1.1492-0.3625 2.3088-0.77651 2.5769-0.92004 0.76989-0.41209 4.9664-1.7546 5.1432-1.6453 0.26537 0.16401-0.18313-1.9114-1.1873-5.4942-1.052-3.7536-1.8477-7.4438-2.1156-9.8119-0.09639-0.85199-0.30699-1.5583-0.46799-1.5696-2.022-0.14212-3.8395 0.1481-5.8684 0.93706-6.886 2.6777-8.7673 3.3967-11.388 4.3524-1.5869 0.57867-4.2033 1.5691-5.8144 2.2009s-3.0306 1.1488-3.1545 1.1488-2.0317 1.8402-4.2396 4.0893l-4.0143 4.0893-0.83343 3.2888c-0.52915 2.0881-0.73734 3.349-0.57023 3.4538 0.14476 0.09077 1.2189 0.30039 2.387 0.46582s3.6517 0.57513 5.5191 0.91045c4.4905 0.80634 5.6566 0.81385 7.8547 0.05062zm5.4788-26.773c-0.0812-0.13137-0.00593-0.28609 0.16726-0.34382 0.1987-0.06624 0.15112-0.16781-0.12896-0.27528-0.32505-0.12474-0.44384-0.03271-0.44384 0.34382 0 0.28278 0.12446 0.51415 0.27658 0.51415s0.21015-0.10749 0.12896-0.23887zm192.04-4.3316 1.8354-1.567 0.42845-2.4811c0.23564-1.3646 0.60137-3.3618 0.81273-4.4381 0.3709-1.8888 0.36594-1.9718-0.14233-2.3834-0.28965-0.23454-0.45327-0.49979-0.36362-0.58944s-0.10235-0.16301-0.42667-0.16301-1.6295-0.53703-2.9003-1.1934l-2.3106-1.1934-2.8613-7.2294c-3.3962-8.5809-3.2822-8.2296-2.9167-8.9824 0.26723-0.5505 0.25993-0.56013-0.09279-0.12242-0.36859 0.45738-0.38885 0.45616-0.54401-0.0327-0.18946-0.59695-1.1137-1.5564-4.0743-4.2294l-2.1695-1.9588-3.3648-6.921c-1.8506-3.8066-3.6651-7.5674-4.0322-8.3575s-0.76424-1.6127-0.88268-1.8282c-1.8277-3.3253-3.6012-7.5341-4.7187-11.198l-1.324-4.3415 0.22632-2.5771c0.14964-1.704 0.13568-2.6925-0.04119-2.9177-0.34049-0.43351-2.1825-1.1926-2.3137-0.95343-0.05433 0.0991-0.31644 1.2379-0.58246 2.5307l-0.48367 2.3505-2.2268 2.3102-2.2268 2.3102-4.444-0.15659c-9.6879-0.34137-9.0616-0.23076-14.499-2.5605-2.6574-1.1386-5.3018-2.2826-5.8764-2.5423s-2.1024-0.92051-3.3952-1.4685-2.8794-1.3637-3.5258-1.8127c-2.9153-2.0248-7.8285-5.5277-8.3575-5.9585-0.21546-0.1755-1.2144-0.89831-2.22-1.6062s-2.5163-1.8087-3.3573-2.4461c-1.1168-0.84644-1.584-1.0701-1.7328-0.82942-0.20767 0.33602-0.38832 1.7369-0.67416 5.2278l-0.16039 1.9588 2.5706 1.4156c6.717 3.6992 6.4336 3.4991 12.103 8.5421 3.3413 2.9719 4.0607 3.486 6.1124 4.3683 1.4908 0.64107 2.5688 0.95413 3.0035 0.87229 5.6218-1.0584 5.1439-1.0253 6.4193-0.44422 0.64794 0.29516 1.4429 0.63757 1.7666 0.7609 0.58292 0.22213 0.74169 0.59692 3.1203 7.366 0.50893 1.4483 0.53041 1.4685 1.8812 1.7708 1.3089 0.29292 1.4529 0.41568 3.4202 2.9158 1.1296 1.4355 2.1678 2.572 2.3073 2.5255s0.92453-1.3866 1.7446-2.978 1.683-3.1675 1.9175-3.5024c0.81681-1.1662 5.4416-5.9848 5.6315-5.8674 0.10516 0.06499 0.52105 0.95891 0.92421 1.9865 0.69602 1.774 1.556 2.9686 4.3148 5.9934 0.71132 0.77991 1.9538 2.9764 3.6937 6.5293 1.442 2.9447 2.993 6.0907 3.4468 6.9911 0.56481 1.1206 1.7496 2.6036 3.7557 4.7011 1.6118 1.6852 2.9357 3.1889 2.9419 3.3416s0.30517 0.88663 0.66428 1.631c0.77603 1.6086 0.79201 1.8112 0.19587 2.4824-0.44411 0.50005-0.44076 0.5046 0.11871 0.16103 0.31667-0.19446 0.62614-0.29925 0.68771-0.23287s0.63695 1.3291 1.2786 2.8061l1.1666 2.6854-0.61491 2.538c-0.33819 1.3959-0.79491 3.359-1.0149 4.3625s-0.48913 1.9136-0.59805 2.0225c-0.1963 0.1963-5.057-2.8144-5.2243-3.2359-0.04788-0.12064-0.21388-0.21935-0.36889-0.21935s-0.82099-0.33951-1.48-0.75447c-1.0383-0.6538-2.2925-1.0008-4.3322-1.1986-0.28728-0.02786-1.0606-0.13903-1.7185-0.24706-1.1225-0.18432-1.3557-0.10883-3.787 1.2257-6.1458 3.3736-5.1802 3.0506-10.371 3.4687l-2.034 0.16384-3.32-2.0027c-1.826-1.1015-3.937-2.4037-4.6912-2.8938s-1.3712-0.8013-1.3712-0.69157 0.42095 0.83867 0.93544 1.6199c1.8718 2.8421 2.1353 3.4657 2.32 5.4887 0.36744 4.0243 0.42133 4.1305 2.9152 5.7458 1.9333 1.2522 2.4519 1.7632 4.0423 3.9829 1.0034 1.4005 1.9274 2.5464 2.0532 2.5464s1.144-1.2046 2.2626-2.677 2.1289-2.7945 2.2452-2.9382 0.56264-0.76066 0.99194-1.3712c0.7086-1.0077 0.88269-1.1102 1.8889-1.1126 0.60958-0.00143 2.2424-0.05153 3.6284-0.11132 2.5776-0.1112 2.8853-0.05714 7.9268 1.3932 1.0055 0.28926 2.8539 0.81633 4.1075 1.1713 2.5546 0.72329 2.8871 0.8756 2.6718 1.2239-0.08264 0.13371-0.0455 0.24312 0.08253 0.24312s0.17985 0.63814 0.11517 1.4181l-0.11759 1.4181 1.034 0.27843c0.56869 0.15313 1.6109 0.39435 2.3161 0.53604s2.6924 0.60047 4.4161 1.0195 3.3303 0.74433 3.5701 0.72289 1.2619-0.74415 2.2714-1.606zm-181.51-16.816 3.2381-0.16033 0.32555-1.1753c0.75016-2.7082 2.4698-10.129 2.4698-10.658 0-0.315-0.12398-0.57272-0.2755-0.57272-0.30747 0-2.3674-0.86863-3.3942-1.4313-0.5713-0.31303-1.3346-0.31104-5.354 0.01396-4.6122 0.37293-5.2142 0.45741-6.2548 0.87758-0.69794 0.28184-6.1457 2.0574-10.905 3.5542-3.2287 1.0154-3.8734 1.3032-3.9776 1.7757-0.32152 1.4581-1.1795 6.2474-1.1795 6.584 0 0.23477 0.27274 0.38482 0.71822 0.39512 0.39502 0.00915 1.8935 0.23064 3.3299 0.49222 2.1488 0.3913 3.9772 0.47463 10.316 0.47017 4.2375-0.00297 9.1617-0.07756 10.943-0.16575zm183.32-4.9119c1.848-1.3513 2.3459-1.9185 2.2085-2.5163-0.0717-0.31201-0.65873-2.4477-1.3045-4.746-1.9051-6.7803-3.202-11.721-3.2044-12.207-0.00123-0.24974-0.16918-0.66108-0.37323-0.9141s-1.3962-1.7528-2.6491-3.3329-2.4334-3.0492-2.6233-3.2646c-1.4652-1.6626-3.5922-4.4096-5.9796-7.7225-3.783-5.2495-3.743-5.2116-6.3417-6.0043-1.2096-0.36894-2.2607-0.60937-2.3358-0.53429s0.91848 1.8161 2.2079 3.8689c3.4373 5.4723 3.0061 4.4201 5.1693 12.612 0.72024 2.7275 1.0245 3.1857 3.0489 4.5905 0.47521 0.32978 1.2704 0.94815 1.7671 1.3742 1.0847 0.93033 1.2871 1.3436 5.6102 11.457 1.517 3.549 2.7583 6.5207 2.7583 6.6038 0 0.21321 0.81904 1.4384 0.96156 1.4384 0.06489 0 0.55086-0.31653 1.0799-0.7034zm-9.4149-9.4823c0.17941-0.28729 0.28466-0.52235 0.23389-0.52235s-0.30504 0.23506-0.56504 0.52235-0.36524 0.52234-0.23388 0.52234 0.38561-0.23506 0.56503-0.52234zm7.3734-11.346c0-0.06335-0.11753-0.18781-0.26117-0.27659s-0.26117-0.03695-0.26117 0.11517 0.11752 0.27659 0.26117 0.27659 0.26117-0.05183 0.26117-0.11517zm-121.44-13.205c0-0.14364-0.12446-0.26117-0.27659-0.26117s-0.20394 0.11753-0.11517 0.26117 0.21324 0.26117 0.27659 0.26117 0.11517-0.11753 0.11517-0.26117zm80.31-19.656c1.5801-0.57984 2.913-1.0867 2.962-1.1263 0.1759-0.14218-0.23463-1.0737-0.69064-1.5671-0.25572-0.2767-0.91425-1.1819-1.4634-2.0116s-1.1906-1.6074-1.4256-1.7282c-0.56291-0.2895-9.5709-3.06-10.735-3.3015-0.49804-0.10337-1.0857-0.28768-1.3058-0.40957s-1.987-0.69222-3.9261-1.2674c-2.6762-0.7938-4.9419-1.2332-9.4022-1.8236l-5.8764-0.77775-1.2322 1.3602c-0.67774 0.74809-1.236 1.4953-1.2406 1.6606-0.0111 0.4009 7.8512 6.0188 9.2262 6.5923 0.59498 0.24821 1.8163 0.66855 2.7141 0.93408s1.6323 0.55652 1.6323 0.64664 0.20567 0.17489 0.45705 0.18838 3.5688 1.0797 7.3721 2.3694l6.915 2.3448 1.573-0.51448c0.86517-0.28297 2.8658-0.9889 4.4459-1.5687zm36.31 1.6856c-0.08041-0.08041-0.29115-1.6e-4 -0.46831 0.17833-0.25601 0.25793-0.22602 0.28793 0.1462 0.1462 0.25758-0.09808 0.40253-0.24412 0.32211-0.32453zm-57.595-3.0693c0-0.22394-0.11945-0.33335-0.26543-0.24312s-0.19782 0.27345-0.11517 0.40717c0.22388 0.36225 0.3806 0.29471 0.3806-0.16405zm-80.009-4.2939c0.14321 0 0.5453-0.30836 0.89354-0.68525s1.4265-1.3221 2.3961-2.1005 1.7629-1.5301 1.7629-1.6706-0.79331-0.78199-1.7629-1.4257-2.4093-1.6346-3.1993-2.202-1.554-1.0325-1.6976-1.0337-0.63915 0.32154-1.1011 0.71712c-0.73077 0.62574-0.8561 0.92141-0.96416 2.2746-0.21993 2.754-0.24637 4.7215-0.06736 5.0112 0.096 0.15533 0.7234 0.64596 1.3942 1.0903 1.0953 0.72552 1.2638 0.76795 1.6525 0.41614 0.23808-0.21546 0.55004-0.39174 0.69324-0.39174zm161.76 164.04c0-0.11485 0.65589-0.72587 1.4575-1.3578 4.212-3.3205 5.0157-3.97 5.8025-4.6896 1.4812-1.3548 5.0593-3.9062 5.2835-3.7676 0.14672 0.09068 0.23446 0.01981 0.19499-0.15748s1.1623-1.2987 2.6705-2.492l2.7423-2.1696 2.4811-0.04383c1.3646-0.02411 3.4213-0.07325 4.5705-0.10921 9.0826-0.28418 16.919-0.35817 16.584-0.15658-0.21547 0.12995-1.1541 0.42991-2.0858 0.66657s-1.9307 0.58516-2.22 0.77445-1.231 0.54674-2.0929 0.79434-2.0969 0.78724-2.7445 1.1992c-2.3807 1.5144-4.3802 2.3616-7.4412 3.1529-3.4412 0.88957-5.6583 1.5967-11.361 3.6236-2.0828 0.74028-5.6674 1.9968-7.9657 2.7923s-4.5607 1.6045-5.0275 1.7978-0.84881 0.25751-0.84881 0.14266zm-221.7-121.69c0.34257-0.26318 1.9157-1.343 3.4957-2.3995l6.5177-4.3585 3.6449-2.4375 2.2315 0.1306 4.7615 0.27061 2.53 0.14002 0.73465-0.98351c0.40406-0.54093 0.8649-1.101 1.0241-1.2447s0.9738-1.0839 1.8102-2.0894c2.4507-2.946 5.9116-6.921 6.026-6.921 0.05808 0-0.00855 0.20567-0.14807 0.45705s-0.9145 2.0437-1.7222 3.9829-2.1768 5.1418-3.0425 7.1169l-1.574 3.5911-3.17 0.00269c-1.7435 0.00148-5.3298 0.07267-7.9694 0.15819l-4.7994 0.15551-2.7746 1.2405c-1.526 0.68228-3.9001 1.7864-5.2758 2.4535-2.6835 1.3014-3.2907 1.4953-2.3004 0.73451zm21.386-5.7742c0-0.35268-0.4761-0.59716-0.78777-0.40454-0.14599 0.09023-0.19782 0.27346-0.11517 0.40718 0.19605 0.31722 0.90294 0.31516 0.90294-0.00264zm168.16-38.902c-2.8152-1.8519-5.5744-3.5701-6.1314-3.8182l-2.4492-1.0943c-1.8717-0.83821-1.8503-0.82895-6.2681-2.705-2.0828-0.88446-4.2571-1.8172-4.8317-2.0729s-1.6617-0.7275-2.4158-1.0486-1.3712-0.68689-1.3712-0.81285c0-0.28881-0.26754-0.2984 4.4686 0.16017 4.9085 0.47526 5.9833 0.57178 8.9817 0.80658 1.2928 0.10124 2.4681 0.20003 2.6117 0.21955 0.229 0.03111 2.9982 1.4511 11.05 5.666l2.1702 1.136 10.352-5.2187c5.6933-2.8703 10.476-5.2628 10.627-5.3168 0.53093-0.18904-3.2701 2.9843-9.2527 7.7248-0.21784 0.1726-1.395 1.1187-2.616 2.1024s-3.5128 2.8195-5.0928 4.0795-3.2255 2.5741-3.6564 2.9203-0.84503 0.63163-0.92021 0.63424-2.4401-1.5104-5.2553-3.3624z"/>
</svg>
